{
	"asset":{
		"generator":"Khronos glTF Blender I/O v5.1.19",
		"version":"2.0"
	},
	"scene":0,
	"scenes":[
		{
			"name":"Scene",
			"nodes":[
				0,
				1
			]
		}
	],
	"nodes":[
		{
			"mesh":0,
			"name":"B\u00e9zierCurve",
			"scale":[
				0.5,
				0.5,
				0.5
			],
			"translation":[
				0.44999998807907104,
				0,
				0
			]
		},
		{
			"mesh":1,
			"name":"Skull001_01 - Default_0",
			"rotation":[
				-0.7071068286895752,
				0,
				0,
				0.7071068286895752
			],
			"scale":[
				0.004999999888241291,
				0.004999999422580004,
				0.004999999422580004
			],
			"translation":[
				0.3328319489955902,
				0.8707937002182007,
				1.1609658002853394
			]
		}
	],
	"materials":[
		{
			"doubleSided":true,
			"name":"Wood",
			"pbrMetallicRoughness":{
				"baseColorTexture":{
					"index":0
				},
				"metallicFactor":0
			}
		},
		{
			"doubleSided":true,
			"name":"01_-_Default",
			"pbrMetallicRoughness":{
				"baseColorTexture":{
					"index":1
				},
				"metallicFactor":0,
				"roughnessFactor":0.5
			}
		}
	],
	"meshes":[
		{
			"name":"Mesh",
			"primitives":[
				{
					"attributes":{
						"POSITION":0,
						"NORMAL":1,
						"TEXCOORD_0":2
					},
					"indices":3,
					"material":0
				}
			]
		},
		{
			"name":"Skull001_01 - Default_0",
			"primitives":[
				{
					"attributes":{
						"POSITION":4,
						"NORMAL":5,
						"TEXCOORD_0":6
					},
					"indices":7,
					"material":1
				}
			]
		}
	],
	"textures":[
		{
			"sampler":0,
			"source":0
		},
		{
			"sampler":0,
			"source":1
		}
	],
	"images":[
		{
			"mimeType":"image/png",
			"name":"woodSmall",
			"uri":"woodSmall.png"
		},
		{
			"mimeType":"image/png",
			"name":"01_-_Default_baseColor",
			"uri":"01_-_Default_baseColor.png"
		}
	],
	"accessors":[
		{
			"bufferView":0,
			"componentType":5126,
			"count":5080,
			"max":[
				0.06939821690320969,
				0.30000001192092896,
				0.954500675201416
			],
			"min":[
				-1.8545007705688477,
				0,
				-0.9545009136199951
			],
			"type":"VEC3"
		},
		{
			"bufferView":1,
			"componentType":5126,
			"count":5080,
			"type":"VEC3"
		},
		{
			"bufferView":2,
			"componentType":5126,
			"count":5080,
			"type":"VEC2"
		},
		{
			"bufferView":3,
			"componentType":5123,
			"count":8682,
			"type":"SCALAR"
		},
		{
			"bufferView":4,
			"componentType":5126,
			"count":4613,
			"max":[
				35.20170211791992,
				309.6834411621094,
				100.43465423583984
			],
			"min":[
				-168.00833129882812,
				162.79684448242188,
				-144.58502197265625
			],
			"type":"VEC3"
		},
		{
			"bufferView":5,
			"componentType":5126,
			"count":4613,
			"type":"VEC3"
		},
		{
			"bufferView":6,
			"componentType":5126,
			"count":4613,
			"type":"VEC2"
		},
		{
			"bufferView":7,
			"componentType":5123,
			"count":8778,
			"type":"SCALAR"
		}
	],
	"bufferViews":[
		{
			"buffer":0,
			"byteLength":60960,
			"byteOffset":0,
			"target":34962
		},
		{
			"buffer":0,
			"byteLength":60960,
			"byteOffset":60960,
			"target":34962
		},
		{
			"buffer":0,
			"byteLength":40640,
			"byteOffset":121920,
			"target":34962
		},
		{
			"buffer":0,
			"byteLength":17364,
			"byteOffset":162560,
			"target":34963
		},
		{
			"buffer":0,
			"byteLength":55356,
			"byteOffset":179924,
			"target":34962
		},
		{
			"buffer":0,
			"byteLength":55356,
			"byteOffset":235280,
			"target":34962
		},
		{
			"buffer":0,
			"byteLength":36904,
			"byteOffset":290636,
			"target":34962
		},
		{
			"buffer":0,
			"byteLength":17556,
			"byteOffset":327540,
			"target":34963
		}
	],
	"samplers":[
		{
			"magFilter":9729,
			"minFilter":9987
		}
	],
	"buffers":[
		{
			"byteLength":345096,
			"uri":"rag.bin"
		}
	]
}
