{
	"asset":{
		"generator":"Khronos glTF Blender I/O v5.1.19",
		"version":"2.0"
	},
	"scene":0,
	"scenes":[
		{
			"name":"Scene",
			"nodes":[
				0,
				1
			]
		}
	],
	"nodes":[
		{
			"mesh":0,
			"name":"B\u00e9zierCurve",
			"translation":[
				0.8999999761581421,
				0,
				0
			]
		},
		{
			"mesh":1,
			"name":"Chibi_Object",
			"scale":[
				1.5,
				1.5,
				1.5
			],
			"translation":[
				0,
				0.30000001192092896,
				0
			]
		}
	],
	"materials":[
		{
			"doubleSided":true,
			"name":"Wood",
			"pbrMetallicRoughness":{
				"metallicFactor":0
			}
		}
	],
	"meshes":[
		{
			"name":"Mesh",
			"primitives":[
				{
					"attributes":{
						"POSITION":0,
						"NORMAL":1,
						"TEXCOORD_0":2,
						"TEXCOORD_1":3
					},
					"indices":4,
					"material":0
				}
			]
		},
		{
			"name":"Cube.001",
			"primitives":[
				{
					"attributes":{
						"POSITION":5,
						"NORMAL":6,
						"TEXCOORD_0":7
					},
					"indices":8
				}
			]
		}
	],
	"accessors":[
		{
			"bufferView":0,
			"componentType":5126,
			"count":5088,
			"max":[
				0.06939821690320969,
				0.30000001192092896,
				0.954500675201416
			],
			"min":[
				-1.8545007705688477,
				0,
				-0.9545009136199951
			],
			"type":"VEC3"
		},
		{
			"bufferView":1,
			"componentType":5126,
			"count":5088,
			"type":"VEC3"
		},
		{
			"bufferView":2,
			"componentType":5126,
			"count":5088,
			"type":"VEC2"
		},
		{
			"bufferView":3,
			"componentType":5126,
			"count":5088,
			"type":"VEC2"
		},
		{
			"bufferView":4,
			"componentType":5123,
			"count":8682,
			"type":"SCALAR"
		},
		{
			"bufferView":5,
			"componentType":5126,
			"count":6296,
			"max":[
				0.5342299342155457,
				1.5191482305526733,
				0.22655613720417023
			],
			"min":[
				-0.5342299342155457,
				0.0007446071249432862,
				-0.3417419195175171
			],
			"type":"VEC3"
		},
		{
			"bufferView":6,
			"componentType":5126,
			"count":6296,
			"type":"VEC3"
		},
		{
			"bufferView":7,
			"componentType":5126,
			"count":6296,
			"type":"VEC2"
		},
		{
			"bufferView":8,
			"componentType":5123,
			"count":9480,
			"type":"SCALAR"
		}
	],
	"bufferViews":[
		{
			"buffer":0,
			"byteLength":61056,
			"byteOffset":0,
			"target":34962
		},
		{
			"buffer":0,
			"byteLength":61056,
			"byteOffset":61056,
			"target":34962
		},
		{
			"buffer":0,
			"byteLength":40704,
			"byteOffset":122112,
			"target":34962
		},
		{
			"buffer":0,
			"byteLength":40704,
			"byteOffset":162816,
			"target":34962
		},
		{
			"buffer":0,
			"byteLength":17364,
			"byteOffset":203520,
			"target":34963
		},
		{
			"buffer":0,
			"byteLength":75552,
			"byteOffset":220884,
			"target":34962
		},
		{
			"buffer":0,
			"byteLength":75552,
			"byteOffset":296436,
			"target":34962
		},
		{
			"buffer":0,
			"byteLength":50368,
			"byteOffset":371988,
			"target":34962
		},
		{
			"buffer":0,
			"byteLength":18960,
			"byteOffset":422356,
			"target":34963
		}
	],
	"buffers":[
		{
			"byteLength":441316,
			"uri":"character.bin"
		}
	]
}
