{
	"asset":{
		"generator":"Khronos glTF Blender I/O v5.1.19",
		"version":"2.0"
	},
	"extensionsUsed":[
		"KHR_materials_clearcoat",
		"KHR_materials_specular",
		"KHR_materials_ior"
	],
	"scene":0,
	"scenes":[
		{
			"name":"Scene",
			"nodes":[
				0,
				1
			]
		}
	],
	"nodes":[
		{
			"mesh":0,
			"name":"B\u00e9zierCurve",
			"scale":[
				0.5,
				0.5,
				0.5
			],
			"translation":[
				0.44999998807907104,
				0,
				0
			]
		},
		{
			"mesh":1,
			"name":"Cube",
			"rotation":[
				0,
				0.7071068286895752,
				0,
				0.7071068286895752
			],
			"scale":[
				0.2499999850988388,
				0.25,
				0.2499999850988388
			],
			"translation":[
				-0.38998401165008545,
				0.3278222680091858,
				0
			]
		}
	],
	"materials":[
		{
			"doubleSided":true,
			"name":"Wood",
			"pbrMetallicRoughness":{
				"baseColorTexture":{
					"index":0
				},
				"metallicFactor":0
			}
		},
		{
			"doubleSided":true,
			"extensions":{
				"KHR_materials_specular":{
					"specularFactor":0.3333333134651184
				},
				"KHR_materials_ior":{
					"ior":1.4500000476837158
				}
			},
			"name":"Material.002",
			"pbrMetallicRoughness":{
				"baseColorTexture":{
					"index":1
				},
				"metallicFactor":0
			}
		},
		{
			"doubleSided":true,
			"extensions":{
				"KHR_materials_clearcoat":{
					"clearcoatFactor":0.25
				},
				"KHR_materials_specular":{
					"specularFactor":0
				},
				"KHR_materials_ior":{
					"ior":1.4500000476837158
				}
			},
			"name":"Material.003",
			"pbrMetallicRoughness":{
				"baseColorTexture":{
					"index":2
				},
				"metallicFactor":0,
				"roughnessFactor":0.6499999761581421
			}
		},
		{
			"doubleSided":true,
			"extensions":{
				"KHR_materials_clearcoat":{
					"clearcoatFactor":0.25
				},
				"KHR_materials_specular":{
					"specularFactor":0
				},
				"KHR_materials_ior":{
					"ior":1.4500000476837158
				}
			},
			"name":"Material.005",
			"pbrMetallicRoughness":{
				"baseColorTexture":{
					"index":3
				},
				"metallicFactor":0,
				"roughnessFactor":0.6166666746139526
			}
		},
		{
			"doubleSided":true,
			"name":"Material.006",
			"pbrMetallicRoughness":{
				"baseColorTexture":{
					"index":4
				},
				"metallicFactor":0,
				"roughnessFactor":0.5
			}
		},
		{
			"doubleSided":true,
			"name":"Material.001",
			"pbrMetallicRoughness":{
				"baseColorTexture":{
					"index":5
				},
				"metallicFactor":0,
				"roughnessFactor":0.8583333492279053
			}
		}
	],
	"meshes":[
		{
			"name":"Mesh",
			"primitives":[
				{
					"attributes":{
						"POSITION":0,
						"NORMAL":1,
						"TEXCOORD_0":2
					},
					"indices":3,
					"material":0
				}
			]
		},
		{
			"name":"Cube.002",
			"primitives":[
				{
					"attributes":{
						"POSITION":4,
						"NORMAL":5,
						"TEXCOORD_0":6
					},
					"indices":7,
					"material":1
				},
				{
					"attributes":{
						"POSITION":8,
						"NORMAL":9,
						"TEXCOORD_0":10
					},
					"indices":11,
					"material":2
				},
				{
					"attributes":{
						"POSITION":12,
						"NORMAL":13,
						"TEXCOORD_0":14
					},
					"indices":15,
					"material":3
				},
				{
					"attributes":{
						"POSITION":16,
						"NORMAL":17,
						"TEXCOORD_0":18
					},
					"indices":19,
					"material":4
				},
				{
					"attributes":{
						"POSITION":20,
						"NORMAL":21,
						"TEXCOORD_0":22
					},
					"indices":23,
					"material":5
				}
			]
		}
	],
	"textures":[
		{
			"sampler":0,
			"source":0
		},
		{
			"sampler":0,
			"source":1
		},
		{
			"sampler":0,
			"source":1
		},
		{
			"sampler":0,
			"source":1
		},
		{
			"sampler":0,
			"source":1
		},
		{
			"sampler":0,
			"source":1
		}
	],
	"images":[
		{
			"mimeType":"image/png",
			"name":"woodSmall",
			"uri":"woodSmall.png"
		},
		{
			"mimeType":"image/png",
			"name":"paguro",
			"uri":"paguro.png"
		}
	],
	"accessors":[
		{
			"bufferView":0,
			"componentType":5126,
			"count":5080,
			"max":[
				0.06939821690320969,
				0.30000001192092896,
				0.954500675201416
			],
			"min":[
				-1.8545007705688477,
				0,
				-0.9545009136199951
			],
			"type":"VEC3"
		},
		{
			"bufferView":1,
			"componentType":5126,
			"count":5080,
			"type":"VEC3"
		},
		{
			"bufferView":2,
			"componentType":5126,
			"count":5080,
			"type":"VEC2"
		},
		{
			"bufferView":3,
			"componentType":5123,
			"count":8682,
			"type":"SCALAR"
		},
		{
			"bufferView":4,
			"componentType":5126,
			"count":1206,
			"max":[
				1.6504831314086914,
				0.7276906967163086,
				2.104767084121704
			],
			"min":[
				-1.6504831314086914,
				-0.7412731051445007,
				0.27448734641075134
			],
			"type":"VEC3"
		},
		{
			"bufferView":5,
			"componentType":5126,
			"count":1206,
			"type":"VEC3"
		},
		{
			"bufferView":6,
			"componentType":5126,
			"count":1206,
			"type":"VEC2"
		},
		{
			"bufferView":7,
			"componentType":5123,
			"count":1701,
			"type":"SCALAR"
		},
		{
			"bufferView":8,
			"componentType":5126,
			"count":290,
			"max":[
				2.6439058780670166,
				2.023951530456543,
				1.0224629640579224
			],
			"min":[
				-2.6439058780670166,
				0.6444348096847534,
				0.08808039873838425
			],
			"type":"VEC3"
		},
		{
			"bufferView":9,
			"componentType":5126,
			"count":290,
			"type":"VEC3"
		},
		{
			"bufferView":10,
			"componentType":5126,
			"count":290,
			"type":"VEC2"
		},
		{
			"bufferView":11,
			"componentType":5123,
			"count":414,
			"type":"SCALAR"
		},
		{
			"bufferView":12,
			"componentType":5126,
			"count":92,
			"max":[
				0.3851549029350281,
				0.8195330500602722,
				0.9418795108795166
			],
			"min":[
				-0.3851549029350281,
				0.6697102189064026,
				0.6553834676742554
			],
			"type":"VEC3"
		},
		{
			"bufferView":13,
			"componentType":5126,
			"count":92,
			"type":"VEC3"
		},
		{
			"bufferView":14,
			"componentType":5126,
			"count":92,
			"type":"VEC2"
		},
		{
			"bufferView":15,
			"componentType":5123,
			"count":132,
			"type":"SCALAR"
		},
		{
			"bufferView":16,
			"componentType":5126,
			"count":400,
			"max":[
				1.6504831314086914,
				0.4900355041027069,
				1.2134300470352173
			],
			"min":[
				-1.6504831314086914,
				-0.7520989775657654,
				0.26399439573287964
			],
			"type":"VEC3"
		},
		{
			"bufferView":17,
			"componentType":5126,
			"count":400,
			"type":"VEC3"
		},
		{
			"bufferView":18,
			"componentType":5126,
			"count":400,
			"type":"VEC2"
		},
		{
			"bufferView":19,
			"componentType":5123,
			"count":588,
			"type":"SCALAR"
		},
		{
			"bufferView":20,
			"componentType":5126,
			"count":756,
			"max":[
				1.5089030265808105,
				1.1670799255371094,
				3.2777676582336426
			],
			"min":[
				-1.0085166692733765,
				-0.6791995763778687,
				0.941999077796936
			],
			"type":"VEC3"
		},
		{
			"bufferView":21,
			"componentType":5126,
			"count":756,
			"type":"VEC3"
		},
		{
			"bufferView":22,
			"componentType":5126,
			"count":756,
			"type":"VEC2"
		},
		{
			"bufferView":23,
			"componentType":5123,
			"count":1116,
			"type":"SCALAR"
		}
	],
	"bufferViews":[
		{
			"buffer":0,
			"byteLength":60960,
			"byteOffset":0,
			"target":34962
		},
		{
			"buffer":0,
			"byteLength":60960,
			"byteOffset":60960,
			"target":34962
		},
		{
			"buffer":0,
			"byteLength":40640,
			"byteOffset":121920,
			"target":34962
		},
		{
			"buffer":0,
			"byteLength":17364,
			"byteOffset":162560,
			"target":34963
		},
		{
			"buffer":0,
			"byteLength":14472,
			"byteOffset":179924,
			"target":34962
		},
		{
			"buffer":0,
			"byteLength":14472,
			"byteOffset":194396,
			"target":34962
		},
		{
			"buffer":0,
			"byteLength":9648,
			"byteOffset":208868,
			"target":34962
		},
		{
			"buffer":0,
			"byteLength":3402,
			"byteOffset":218516,
			"target":34963
		},
		{
			"buffer":0,
			"byteLength":3480,
			"byteOffset":221920,
			"target":34962
		},
		{
			"buffer":0,
			"byteLength":3480,
			"byteOffset":225400,
			"target":34962
		},
		{
			"buffer":0,
			"byteLength":2320,
			"byteOffset":228880,
			"target":34962
		},
		{
			"buffer":0,
			"byteLength":828,
			"byteOffset":231200,
			"target":34963
		},
		{
			"buffer":0,
			"byteLength":1104,
			"byteOffset":232028,
			"target":34962
		},
		{
			"buffer":0,
			"byteLength":1104,
			"byteOffset":233132,
			"target":34962
		},
		{
			"buffer":0,
			"byteLength":736,
			"byteOffset":234236,
			"target":34962
		},
		{
			"buffer":0,
			"byteLength":264,
			"byteOffset":234972,
			"target":34963
		},
		{
			"buffer":0,
			"byteLength":4800,
			"byteOffset":235236,
			"target":34962
		},
		{
			"buffer":0,
			"byteLength":4800,
			"byteOffset":240036,
			"target":34962
		},
		{
			"buffer":0,
			"byteLength":3200,
			"byteOffset":244836,
			"target":34962
		},
		{
			"buffer":0,
			"byteLength":1176,
			"byteOffset":248036,
			"target":34963
		},
		{
			"buffer":0,
			"byteLength":9072,
			"byteOffset":249212,
			"target":34962
		},
		{
			"buffer":0,
			"byteLength":9072,
			"byteOffset":258284,
			"target":34962
		},
		{
			"buffer":0,
			"byteLength":6048,
			"byteOffset":267356,
			"target":34962
		},
		{
			"buffer":0,
			"byteLength":2232,
			"byteOffset":273404,
			"target":34963
		}
	],
	"samplers":[
		{
			"magFilter":9729,
			"minFilter":9987
		}
	],
	"buffers":[
		{
			"byteLength":275636,
			"uri":"crab.bin"
		}
	]
}
