{
	"asset":{
		"generator":"Khronos glTF Blender I/O v5.1.20",
		"version":"2.0"
	},
	"scene":0,
	"scenes":[
		{
			"name":"Scene",
			"nodes":[
				0,
				1,
				2,
				3,
				4,
				5,
				6,
				7,
				8
			]
		}
	],
	"nodes":[
		{
			"mesh":0,
			"name":"Grey",
			"rotation":[
				0,
				0.7071068286895752,
				0,
				0.7071068286895752
			],
			"translation":[
				-17.32040023803711,
				0,
				15
			]
		},
		{
			"mesh":1,
			"name":"Boundaries",
			"rotation":[
				0,
				-1,
				0,
				4.371138828673793e-08
			],
			"scale":[
				1.0199999809265137,
				1,
				1
			],
			"translation":[
				18.44208526611328,
				1,
				-18.003494262695312
			]
		},
		{
			"mesh":2,
			"name":"Carpet",
			"scale":[
				0.96875,
				1,
				0.96875
			],
			"translation":[
				12.124300003051758,
				-0.029999999329447746,
				-7
			]
		},
		{
			"mesh":3,
			"name":"Wood",
			"translation":[
				12.124300003051758,
				-0.03999999910593033,
				-7
			]
		},
		{
			"mesh":4,
			"name":"White",
			"rotation":[
				0,
				0.7071068286895752,
				0,
				0.7071068286895752
			],
			"translation":[
				-17.32040023803711,
				0,
				15
			]
		},
		{
			"mesh":5,
			"name":"Black",
			"rotation":[
				0,
				0.7071068286895752,
				0,
				0.7071068286895752
			],
			"translation":[
				-17.32040023803711,
				0,
				15
			]
		},
		{
			"name":"Profile"
		},
		{
			"mesh":6,
			"name":"Path",
			"rotation":[
				0,
				0.3826834559440613,
				0,
				0.9238795638084412
			],
			"translation":[
				12.124300003051758,
				-0.04500000178813934,
				-7
			]
		},
		{
			"mesh":7,
			"name":"Plane",
			"translation":[
				12.124300003051758,
				-1.6700001955032349,
				-7
			]
		}
	],
	"materials":[
		{
			"doubleSided":true,
			"name":"Material.001",
			"pbrMetallicRoughness":{
				"baseColorFactor":[
					0.5271152257919312,
					0.5271152257919312,
					0.5271152257919312,
					1
				],
				"metallicFactor":0.30000001192092896,
				"roughnessFactor":0.4000000059604645
			}
		},
		{
			"doubleSided":true,
			"name":"Carpet",
			"pbrMetallicRoughness":{
				"baseColorTexture":{
					"index":0
				},
				"metallicFactor":0,
				"roughnessFactor":0.8999999761581421
			}
		},
		{
			"doubleSided":true,
			"name":"Wood",
			"pbrMetallicRoughness":{
				"baseColorTexture":{
					"index":1
				},
				"metallicFactor":0
			}
		},
		{
			"doubleSided":true,
			"name":"Material",
			"pbrMetallicRoughness":{
				"baseColorFactor":[
					0.7454044222831726,
					0.7454044222831726,
					0.7454044222831726,
					1
				],
				"metallicFactor":0.30000001192092896,
				"roughnessFactor":0.4000000059604645
			}
		},
		{
			"doubleSided":true,
			"name":"Material.002",
			"pbrMetallicRoughness":{
				"baseColorFactor":[
					0.3515326976776123,
					0.3515326976776123,
					0.3515326976776123,
					1
				],
				"metallicFactor":0.30000001192092896,
				"roughnessFactor":0.4000000059604645
			}
		},
		{
			"doubleSided":true,
			"name":"Material.004",
			"pbrMetallicRoughness":{
				"baseColorFactor":[
					0,
					0,
					0,
					1
				],
				"metallicFactor":0,
				"roughnessFactor":0.5
			}
		}
	],
	"meshes":[
		{
			"name":"Circle.002",
			"primitives":[
				{
					"attributes":{
						"POSITION":0,
						"NORMAL":1,
						"TEXCOORD_0":2
					},
					"indices":3,
					"material":0
				}
			]
		},
		{
			"name":"Circle.014",
			"primitives":[
				{
					"attributes":{
						"POSITION":4,
						"NORMAL":5,
						"TEXCOORD_0":6
					},
					"indices":7
				}
			]
		},
		{
			"name":"Plane",
			"primitives":[
				{
					"attributes":{
						"POSITION":8,
						"NORMAL":9,
						"TEXCOORD_0":10
					},
					"indices":11,
					"material":1
				}
			]
		},
		{
			"name":"Plane.001",
			"primitives":[
				{
					"attributes":{
						"POSITION":12,
						"NORMAL":13,
						"TEXCOORD_0":14
					},
					"indices":11,
					"material":2
				}
			]
		},
		{
			"name":"Circle.001",
			"primitives":[
				{
					"attributes":{
						"POSITION":15,
						"NORMAL":16,
						"TEXCOORD_0":17
					},
					"indices":18,
					"material":3
				}
			]
		},
		{
			"name":"Circle.003",
			"primitives":[
				{
					"attributes":{
						"POSITION":19,
						"NORMAL":20,
						"TEXCOORD_0":21
					},
					"indices":22,
					"material":4
				}
			]
		},
		{
			"name":"B\u00e9zierCircle.001",
			"primitives":[
				{
					"attributes":{
						"POSITION":23,
						"NORMAL":24,
						"TEXCOORD_0":25
					},
					"indices":26,
					"material":2
				}
			]
		},
		{
			"name":"Plane.002",
			"primitives":[
				{
					"attributes":{
						"POSITION":27,
						"NORMAL":28,
						"TEXCOORD_0":29
					},
					"indices":30,
					"material":5
				}
			]
		}
	],
	"textures":[
		{
			"sampler":0,
			"source":0
		},
		{
			"sampler":0,
			"source":1
		}
	],
	"images":[
		{
			"mimeType":"image/png",
			"name":"carpet",
			"uri":"carpet.png"
		},
		{
			"mimeType":"image/png",
			"name":"wood",
			"uri":"wood.png"
		}
	],
	"accessors":[
		{
			"bufferView":0,
			"componentType":5126,
			"count":8304,
			"max":[
				37,
				0,
				42.14655303955078
			],
			"min":[
				6.8289947509765625,
				-0.05000000074505806,
				16.743148803710938
			],
			"type":"VEC3"
		},
		{
			"bufferView":1,
			"componentType":5126,
			"count":8304,
			"type":"VEC3"
		},
		{
			"bufferView":2,
			"componentType":5126,
			"count":8304,
			"type":"VEC2"
		},
		{
			"bufferView":3,
			"componentType":5123,
			"count":13776,
			"type":"SCALAR"
		},
		{
			"bufferView":4,
			"componentType":5126,
			"count":3,
			"max":[
				12.143842697143555,
				0,
				-24.17397117614746
			],
			"min":[
				8.74308967590332,
				0,
				-26.174495697021484
			],
			"type":"VEC3"
		},
		{
			"bufferView":5,
			"componentType":5126,
			"count":3,
			"type":"VEC3"
		},
		{
			"bufferView":6,
			"componentType":5126,
			"count":3,
			"type":"VEC2"
		},
		{
			"bufferView":7,
			"componentType":5123,
			"count":3,
			"type":"SCALAR"
		},
		{
			"bufferView":8,
			"componentType":5126,
			"count":24,
			"max":[
				16,
				0,
				16
			],
			"min":[
				-16,
				-0.009999999776482582,
				-16
			],
			"type":"VEC3"
		},
		{
			"bufferView":9,
			"componentType":5126,
			"count":24,
			"type":"VEC3"
		},
		{
			"bufferView":10,
			"componentType":5126,
			"count":24,
			"type":"VEC2"
		},
		{
			"bufferView":11,
			"componentType":5123,
			"count":36,
			"type":"SCALAR"
		},
		{
			"bufferView":12,
			"componentType":5126,
			"count":24,
			"max":[
				16,
				0,
				16
			],
			"min":[
				-16,
				-0.009999999776482582,
				-16
			],
			"type":"VEC3"
		},
		{
			"bufferView":13,
			"componentType":5126,
			"count":24,
			"type":"VEC3"
		},
		{
			"bufferView":14,
			"componentType":5126,
			"count":24,
			"type":"VEC2"
		},
		{
			"bufferView":15,
			"componentType":5126,
			"count":8293,
			"max":[
				37,
				0,
				42.14655303955078
			],
			"min":[
				7,
				-0.05000000074505806,
				16.73581314086914
			],
			"type":"VEC3"
		},
		{
			"bufferView":16,
			"componentType":5126,
			"count":8293,
			"type":"VEC3"
		},
		{
			"bufferView":17,
			"componentType":5126,
			"count":8293,
			"type":"VEC2"
		},
		{
			"bufferView":18,
			"componentType":5123,
			"count":13767,
			"type":"SCALAR"
		},
		{
			"bufferView":19,
			"componentType":5126,
			"count":8301,
			"max":[
				37.16893005371094,
				0,
				42.14655303955078
			],
			"min":[
				7,
				-0.05000000074505806,
				16.743148803710938
			],
			"type":"VEC3"
		},
		{
			"bufferView":20,
			"componentType":5126,
			"count":8301,
			"type":"VEC3"
		},
		{
			"bufferView":21,
			"componentType":5126,
			"count":8301,
			"type":"VEC2"
		},
		{
			"bufferView":22,
			"componentType":5123,
			"count":13773,
			"type":"SCALAR"
		},
		{
			"bufferView":23,
			"componentType":5126,
			"count":245,
			"max":[
				22.76617431640625,
				0,
				22.76617431640625
			],
			"min":[
				-22.76617431640625,
				-1.632869839668274,
				-22.76617431640625
			],
			"type":"VEC3"
		},
		{
			"bufferView":24,
			"componentType":5126,
			"count":245,
			"type":"VEC3"
		},
		{
			"bufferView":25,
			"componentType":5126,
			"count":245,
			"type":"VEC2"
		},
		{
			"bufferView":26,
			"componentType":5123,
			"count":1152,
			"type":"SCALAR"
		},
		{
			"bufferView":27,
			"componentType":5126,
			"count":4,
			"max":[
				16,
				0,
				16
			],
			"min":[
				-16,
				0,
				-16
			],
			"type":"VEC3"
		},
		{
			"bufferView":28,
			"componentType":5126,
			"count":4,
			"type":"VEC3"
		},
		{
			"bufferView":29,
			"componentType":5126,
			"count":4,
			"type":"VEC2"
		},
		{
			"bufferView":30,
			"componentType":5123,
			"count":6,
			"type":"SCALAR"
		}
	],
	"bufferViews":[
		{
			"buffer":0,
			"byteLength":99648,
			"byteOffset":0,
			"target":34962
		},
		{
			"buffer":0,
			"byteLength":99648,
			"byteOffset":99648,
			"target":34962
		},
		{
			"buffer":0,
			"byteLength":66432,
			"byteOffset":199296,
			"target":34962
		},
		{
			"buffer":0,
			"byteLength":27552,
			"byteOffset":265728,
			"target":34963
		},
		{
			"buffer":0,
			"byteLength":36,
			"byteOffset":293280,
			"target":34962
		},
		{
			"buffer":0,
			"byteLength":36,
			"byteOffset":293316,
			"target":34962
		},
		{
			"buffer":0,
			"byteLength":24,
			"byteOffset":293352,
			"target":34962
		},
		{
			"buffer":0,
			"byteLength":6,
			"byteOffset":293376,
			"target":34963
		},
		{
			"buffer":0,
			"byteLength":288,
			"byteOffset":293384,
			"target":34962
		},
		{
			"buffer":0,
			"byteLength":288,
			"byteOffset":293672,
			"target":34962
		},
		{
			"buffer":0,
			"byteLength":192,
			"byteOffset":293960,
			"target":34962
		},
		{
			"buffer":0,
			"byteLength":72,
			"byteOffset":294152,
			"target":34963
		},
		{
			"buffer":0,
			"byteLength":288,
			"byteOffset":294224,
			"target":34962
		},
		{
			"buffer":0,
			"byteLength":288,
			"byteOffset":294512,
			"target":34962
		},
		{
			"buffer":0,
			"byteLength":192,
			"byteOffset":294800,
			"target":34962
		},
		{
			"buffer":0,
			"byteLength":99516,
			"byteOffset":294992,
			"target":34962
		},
		{
			"buffer":0,
			"byteLength":99516,
			"byteOffset":394508,
			"target":34962
		},
		{
			"buffer":0,
			"byteLength":66344,
			"byteOffset":494024,
			"target":34962
		},
		{
			"buffer":0,
			"byteLength":27534,
			"byteOffset":560368,
			"target":34963
		},
		{
			"buffer":0,
			"byteLength":99612,
			"byteOffset":587904,
			"target":34962
		},
		{
			"buffer":0,
			"byteLength":99612,
			"byteOffset":687516,
			"target":34962
		},
		{
			"buffer":0,
			"byteLength":66408,
			"byteOffset":787128,
			"target":34962
		},
		{
			"buffer":0,
			"byteLength":27546,
			"byteOffset":853536,
			"target":34963
		},
		{
			"buffer":0,
			"byteLength":2940,
			"byteOffset":881084,
			"target":34962
		},
		{
			"buffer":0,
			"byteLength":2940,
			"byteOffset":884024,
			"target":34962
		},
		{
			"buffer":0,
			"byteLength":1960,
			"byteOffset":886964,
			"target":34962
		},
		{
			"buffer":0,
			"byteLength":2304,
			"byteOffset":888924,
			"target":34963
		},
		{
			"buffer":0,
			"byteLength":48,
			"byteOffset":891228,
			"target":34962
		},
		{
			"buffer":0,
			"byteLength":48,
			"byteOffset":891276,
			"target":34962
		},
		{
			"buffer":0,
			"byteLength":32,
			"byteOffset":891324,
			"target":34962
		},
		{
			"buffer":0,
			"byteLength":12,
			"byteOffset":891356,
			"target":34963
		}
	],
	"samplers":[
		{
			"magFilter":9729,
			"minFilter":9987
		}
	],
	"buffers":[
		{
			"byteLength":891368,
			"uri":"Board.bin"
		}
	]
}
