{
	"asset":{
		"generator":"Khronos glTF Blender I/O v5.1.19",
		"version":"2.0"
	},
	"extensionsUsed":[
		"KHR_materials_emissive_strength"
	],
	"scene":0,
	"scenes":[
		{
			"name":"Scene",
			"nodes":[
				0,
				1
			]
		}
	],
	"nodes":[
		{
			"mesh":0,
			"name":"B\u00e9zierCurve",
			"scale":[
				0.5,
				0.5,
				0.5
			],
			"translation":[
				0.44999998807907104,
				0,
				0
			]
		},
		{
			"mesh":1,
			"name":"Object_46",
			"rotation":[
				-0.7071068286895752,
				0,
				0,
				0.7071068286895752
			],
			"scale":[
				0.4902271628379822,
				0.4902271628379822,
				0.4902271628379822
			],
			"translation":[
				-0.08575216680765152,
				-0.04442008584737778,
				-0.0776551142334938
			]
		}
	],
	"materials":[
		{
			"doubleSided":true,
			"name":"Wood",
			"pbrMetallicRoughness":{
				"baseColorTexture":{
					"index":0
				},
				"metallicFactor":0
			}
		},
		{
			"doubleSided":true,
			"emissiveFactor":[
				1,
				1,
				1
			],
			"emissiveTexture":{
				"index":1
			},
			"extensions":{
				"KHR_materials_emissive_strength":{
					"emissiveStrength":3
				}
			},
			"name":"GM-SNIPER",
			"normalTexture":{
				"index":2
			},
			"pbrMetallicRoughness":{
				"baseColorTexture":{
					"index":3
				},
				"metallicFactor":0,
				"roughnessFactor":0.20000000298023224
			}
		}
	],
	"meshes":[
		{
			"name":"Mesh",
			"primitives":[
				{
					"attributes":{
						"POSITION":0,
						"NORMAL":1,
						"TEXCOORD_0":2
					},
					"indices":3,
					"material":0
				}
			]
		},
		{
			"name":"\ufffd\ufffd\ufffd\ufffd\ufffd\ufffd\ufffd\ufffd\ufffd\ufffd\ufffd\ufffd\ufffd\ufffd\ufffd\ufffd\ufffd\ufffd\ufffd\ufffd\ufffd\ufffd\ufffd\ufffd\ufffd\ufffd\ufffd\ufffd\ufffd\ufffd\ufffd\ufffd\ufffd_GM-SNIPER_0",
			"primitives":[
				{
					"attributes":{
						"POSITION":4,
						"NORMAL":5,
						"TEXCOORD_0":6,
						"TEXCOORD_1":7,
						"TEXCOORD_2":8
					},
					"indices":9,
					"material":1
				}
			]
		}
	],
	"textures":[
		{
			"sampler":0,
			"source":0
		},
		{
			"sampler":0,
			"source":1
		},
		{
			"sampler":0,
			"source":2
		},
		{
			"sampler":0,
			"source":3
		}
	],
	"images":[
		{
			"mimeType":"image/png",
			"name":"woodSmall",
			"uri":"woodSmall.png"
		},
		{
			"mimeType":"image/png",
			"name":"GM-SNIPER_emissive",
			"uri":"GM-SNIPER_emissive.png"
		},
		{
			"mimeType":"image/png",
			"name":"GM-SNIPER_normal",
			"uri":"GM-SNIPER_normal.png"
		},
		{
			"mimeType":"image/png",
			"name":"GM-SNIPER_baseColor",
			"uri":"GM-SNIPER_baseColor.png"
		}
	],
	"accessors":[
		{
			"bufferView":0,
			"componentType":5126,
			"count":5080,
			"max":[
				0.06939821690320969,
				0.30000001192092896,
				0.954500675201416
			],
			"min":[
				-1.8545007705688477,
				0,
				-0.9545009136199951
			],
			"type":"VEC3"
		},
		{
			"bufferView":1,
			"componentType":5126,
			"count":5080,
			"type":"VEC3"
		},
		{
			"bufferView":2,
			"componentType":5126,
			"count":5080,
			"type":"VEC2"
		},
		{
			"bufferView":3,
			"componentType":5123,
			"count":8682,
			"type":"SCALAR"
		},
		{
			"bufferView":4,
			"componentType":5126,
			"count":4079,
			"max":[
				0.7594870924949646,
				0.638481080532074,
				1.8666914701461792
			],
			"min":[
				-0.5427644848823547,
				-0.9484522938728333,
				0.39524075388908386
			],
			"type":"VEC3"
		},
		{
			"bufferView":5,
			"componentType":5126,
			"count":4079,
			"type":"VEC3"
		},
		{
			"bufferView":6,
			"componentType":5126,
			"count":4079,
			"type":"VEC2"
		},
		{
			"bufferView":7,
			"componentType":5126,
			"count":4079,
			"type":"VEC2"
		},
		{
			"bufferView":8,
			"componentType":5126,
			"count":4079,
			"type":"VEC2"
		},
		{
			"bufferView":9,
			"componentType":5123,
			"count":6483,
			"type":"SCALAR"
		}
	],
	"bufferViews":[
		{
			"buffer":0,
			"byteLength":60960,
			"byteOffset":0,
			"target":34962
		},
		{
			"buffer":0,
			"byteLength":60960,
			"byteOffset":60960,
			"target":34962
		},
		{
			"buffer":0,
			"byteLength":40640,
			"byteOffset":121920,
			"target":34962
		},
		{
			"buffer":0,
			"byteLength":17364,
			"byteOffset":162560,
			"target":34963
		},
		{
			"buffer":0,
			"byteLength":48948,
			"byteOffset":179924,
			"target":34962
		},
		{
			"buffer":0,
			"byteLength":48948,
			"byteOffset":228872,
			"target":34962
		},
		{
			"buffer":0,
			"byteLength":32632,
			"byteOffset":277820,
			"target":34962
		},
		{
			"buffer":0,
			"byteLength":32632,
			"byteOffset":310452,
			"target":34962
		},
		{
			"buffer":0,
			"byteLength":32632,
			"byteOffset":343084,
			"target":34962
		},
		{
			"buffer":0,
			"byteLength":12966,
			"byteOffset":375716,
			"target":34963
		}
	],
	"samplers":[
		{
			"magFilter":9729,
			"minFilter":9987
		}
	],
	"buffers":[
		{
			"byteLength":388684,
			"uri":"scoper.bin"
		}
	]
}
