{
	"asset":{
		"generator":"Khronos glTF Blender I/O v5.1.19",
		"version":"2.0"
	},
	"scene":0,
	"scenes":[
		{
			"name":"Scene",
			"nodes":[
				0,
				1
			]
		}
	],
	"nodes":[
		{
			"mesh":0,
			"name":"B\u00e9zierCurve",
			"scale":[
				0.5,
				0.5,
				0.5
			],
			"translation":[
				0.44999998807907104,
				0,
				0
			]
		},
		{
			"mesh":1,
			"name":"uploads_files_4670553_fery_lp",
			"rotation":[
				0.70710688829422,
				0,
				0,
				0.7071066498756409
			],
			"scale":[
				0.029999999329447746,
				0.029999997466802597,
				0.029999997466802597
			],
			"translation":[
				0,
				0.16540880501270294,
				0
			]
		}
	],
	"materials":[
		{
			"doubleSided":true,
			"name":"Wood",
			"pbrMetallicRoughness":{
				"baseColorTexture":{
					"index":0
				},
				"metallicFactor":0
			}
		},
		{
			"doubleSided":true,
			"name":"blinn4SG",
			"pbrMetallicRoughness":{
				"baseColorTexture":{
					"index":1
				},
				"metallicFactor":0
			}
		}
	],
	"meshes":[
		{
			"name":"Mesh",
			"primitives":[
				{
					"attributes":{
						"POSITION":0,
						"NORMAL":1,
						"TEXCOORD_0":2
					},
					"indices":3,
					"material":0
				}
			]
		},
		{
			"name":"uploads_files_4670553_fery_lp",
			"primitives":[
				{
					"attributes":{
						"POSITION":4,
						"NORMAL":5,
						"TEXCOORD_0":6
					},
					"indices":7,
					"material":1
				}
			]
		}
	],
	"textures":[
		{
			"sampler":0,
			"source":0
		},
		{
			"sampler":0,
			"source":1
		}
	],
	"images":[
		{
			"mimeType":"image/png",
			"name":"woodSmall",
			"uri":"woodSmall.png"
		},
		{
			"mimeType":"image/png",
			"name":"feri_red_BaseColor",
			"uri":"feri_red_BaseColor.png"
		}
	],
	"accessors":[
		{
			"bufferView":0,
			"componentType":5126,
			"count":5080,
			"max":[
				0.06939821690320969,
				0.30000001192092896,
				0.954500675201416
			],
			"min":[
				-1.8545007705688477,
				0,
				-0.9545009136199951
			],
			"type":"VEC3"
		},
		{
			"bufferView":1,
			"componentType":5126,
			"count":5080,
			"type":"VEC3"
		},
		{
			"bufferView":2,
			"componentType":5126,
			"count":5080,
			"type":"VEC2"
		},
		{
			"bufferView":3,
			"componentType":5123,
			"count":8682,
			"type":"SCALAR"
		},
		{
			"bufferView":4,
			"componentType":5126,
			"count":752,
			"max":[
				17.378686904907227,
				3.109015941619873,
				0.8568230271339417
			],
			"min":[
				-17.378686904907227,
				-11.986483573913574,
				-62.8718376159668
			],
			"type":"VEC3"
		},
		{
			"bufferView":5,
			"componentType":5126,
			"count":752,
			"type":"VEC3"
		},
		{
			"bufferView":6,
			"componentType":5126,
			"count":752,
			"type":"VEC2"
		},
		{
			"bufferView":7,
			"componentType":5123,
			"count":2562,
			"type":"SCALAR"
		}
	],
	"bufferViews":[
		{
			"buffer":0,
			"byteLength":60960,
			"byteOffset":0,
			"target":34962
		},
		{
			"buffer":0,
			"byteLength":60960,
			"byteOffset":60960,
			"target":34962
		},
		{
			"buffer":0,
			"byteLength":40640,
			"byteOffset":121920,
			"target":34962
		},
		{
			"buffer":0,
			"byteLength":17364,
			"byteOffset":162560,
			"target":34963
		},
		{
			"buffer":0,
			"byteLength":9024,
			"byteOffset":179924,
			"target":34962
		},
		{
			"buffer":0,
			"byteLength":9024,
			"byteOffset":188948,
			"target":34962
		},
		{
			"buffer":0,
			"byteLength":6016,
			"byteOffset":197972,
			"target":34962
		},
		{
			"buffer":0,
			"byteLength":5124,
			"byteOffset":203988,
			"target":34963
		}
	],
	"samplers":[
		{
			"magFilter":9729,
			"minFilter":9987
		}
	],
	"buffers":[
		{
			"byteLength":209112,
			"uri":"fairy.bin"
		}
	]
}
