{
	"asset":{
		"generator":"Khronos glTF Blender I/O v5.1.19",
		"version":"2.0"
	},
	"scene":0,
	"scenes":[
		{
			"name":"Scene",
			"nodes":[
				0,
				1
			]
		}
	],
	"nodes":[
		{
			"mesh":0,
			"name":"B\u00e9zierCurve",
			"scale":[
				0.5,
				0.5,
				0.5
			],
			"translation":[
				0.44999998807907104,
				0,
				0
			]
		},
		{
			"mesh":1,
			"name":"Chibi_Object",
			"scale":[
				0.75,
				0.75,
				0.75
			],
			"translation":[
				0,
				0.15000000596046448,
				0
			]
		}
	],
	"materials":[
		{
			"doubleSided":true,
			"name":"Wood",
			"pbrMetallicRoughness":{
				"baseColorTexture":{
					"index":0
				},
				"metallicFactor":0
			}
		}
	],
	"meshes":[
		{
			"name":"Mesh",
			"primitives":[
				{
					"attributes":{
						"POSITION":0,
						"NORMAL":1,
						"TEXCOORD_0":2
					},
					"indices":3,
					"material":0
				}
			]
		},
		{
			"name":"Cube.001",
			"primitives":[
				{
					"attributes":{
						"POSITION":4,
						"NORMAL":5,
						"TEXCOORD_0":6
					},
					"indices":7
				}
			]
		}
	],
	"textures":[
		{
			"sampler":0,
			"source":0
		}
	],
	"images":[
		{
			"mimeType":"image/png",
			"name":"woodSmall",
			"uri":"woodSmall.png"
		}
	],
	"accessors":[
		{
			"bufferView":0,
			"componentType":5126,
			"count":5080,
			"max":[
				0.06939821690320969,
				0.30000001192092896,
				0.954500675201416
			],
			"min":[
				-1.8545007705688477,
				0,
				-0.9545009136199951
			],
			"type":"VEC3"
		},
		{
			"bufferView":1,
			"componentType":5126,
			"count":5080,
			"type":"VEC3"
		},
		{
			"bufferView":2,
			"componentType":5126,
			"count":5080,
			"type":"VEC2"
		},
		{
			"bufferView":3,
			"componentType":5123,
			"count":8682,
			"type":"SCALAR"
		},
		{
			"bufferView":4,
			"componentType":5126,
			"count":6296,
			"max":[
				0.5342299342155457,
				1.5191482305526733,
				0.22655613720417023
			],
			"min":[
				-0.5342299342155457,
				0.0007446071249432862,
				-0.3417419195175171
			],
			"type":"VEC3"
		},
		{
			"bufferView":5,
			"componentType":5126,
			"count":6296,
			"type":"VEC3"
		},
		{
			"bufferView":6,
			"componentType":5126,
			"count":6296,
			"type":"VEC2"
		},
		{
			"bufferView":7,
			"componentType":5123,
			"count":9480,
			"type":"SCALAR"
		}
	],
	"bufferViews":[
		{
			"buffer":0,
			"byteLength":60960,
			"byteOffset":0,
			"target":34962
		},
		{
			"buffer":0,
			"byteLength":60960,
			"byteOffset":60960,
			"target":34962
		},
		{
			"buffer":0,
			"byteLength":40640,
			"byteOffset":121920,
			"target":34962
		},
		{
			"buffer":0,
			"byteLength":17364,
			"byteOffset":162560,
			"target":34963
		},
		{
			"buffer":0,
			"byteLength":75552,
			"byteOffset":179924,
			"target":34962
		},
		{
			"buffer":0,
			"byteLength":75552,
			"byteOffset":255476,
			"target":34962
		},
		{
			"buffer":0,
			"byteLength":50368,
			"byteOffset":331028,
			"target":34962
		},
		{
			"buffer":0,
			"byteLength":18960,
			"byteOffset":381396,
			"target":34963
		}
	],
	"samplers":[
		{
			"magFilter":9729,
			"minFilter":9987
		}
	],
	"buffers":[
		{
			"byteLength":400356,
			"uri":"GenericCharacter.bin"
		}
	]
}
